<?xml version="1.0" encoding="utf-8"?>
<!-- Generator: Adobe Illustrator 18.1.1, SVG Export Plug-In . SVG Version: 6.00 Build 0)  -->
<!DOCTYPE svg PUBLIC "-//W3C//DTD SVG 1.1//EN" "http://www.w3.org/Graphics/SVG/1.1/DTD/svg11.dtd">
<svg version="1.1" id="Layer_1" xmlns="http://www.w3.org/2000/svg" xmlns:xlink="http://www.w3.org/1999/xlink" x="0px" y="0px"
	 viewBox="0 0 236.3 239.3" enable-background="new 0 0 236.3 239.3" xml:space="preserve">
<path fill-rule="evenodd" clip-rule="evenodd" fill="#FFFFFF" d="M122.9,113.1c0-0.1,0.1-0.1,0.1-0.2v0.2H122.9z M160.7,186.7H75.6
	c-13.5,0-24.5-11-24.5-24.5V77.1c0-13.5,11-24.5,24.5-24.5h85.1c13.5,0,24.5,11,24.5,24.5v85.1C185.2,175.7,174.2,186.7,160.7,186.7
	z M160,95.5h-26V89h26V95.5z M116.7,122c1.7,2.6,2.5,5.8,2.5,9.5c0,3.8-0.9,7.3-2.9,10.3c-1.2,2-2.7,3.7-4.6,5.1
	c-2.1,1.6-4.5,2.7-7.3,3.2c-2.8,0.6-5.8,0.9-9.1,0.9H66.2V86.3h31.2c7.9,0.1,13.4,2.4,16.7,6.9c2,2.7,3,6,3,9.9c0,3.9-1,7.1-3,9.5
	c-1.1,1.3-2.8,2.6-4.9,3.7C112.5,117.5,115,119.4,116.7,122L116.7,122z M81.1,111.8h13.7c2.8,0,5.1-0.5,6.8-1.6
	c1.8-1.1,2.6-3,2.6-5.7c0-3-1.2-5-3.5-6c-2-0.7-4.5-1-7.6-1h-12V111.8z M105.6,130.5c0-3.4-1.4-5.7-4.1-6.9
	c-1.5-0.7-3.7-1.1-6.5-1.1H81.1v17.2h13.7c2.8,0,5-0.4,6.5-1.1C104.1,137.2,105.6,134.5,105.6,130.5L105.6,130.5z M169.6,120
	c0.3,2.1,0.5,5.2,0.4,9.2h-33.7c0.2,4.6,1.8,7.9,4.8,9.8c1.8,1.2,4.1,1.7,6.7,1.7c2.8,0,5-0.7,6.7-2.1c0.9-0.8,1.8-1.8,2.5-3.2h12.3
	c-0.3,2.7-1.8,5.5-4.5,8.4c-4.1,4.5-9.9,6.8-17.4,6.8c-6.2,0-11.6-1.9-16.3-5.7c-4.7-3.8-7.1-10-7.1-18.5c0-8,2.1-14.2,6.4-18.4
	c4.3-4.3,9.8-6.4,16.6-6.4c4,0,7.7,0.7,10.9,2.2c3.2,1.4,5.9,3.7,8,6.8C167.9,113.2,169.1,116.4,169.6,120L169.6,120z M157.5,121.2
	c-0.2-3.2-1.3-5.7-3.2-7.3c-1.9-1.7-4.3-2.5-7.2-2.5c-3.1,0-5.5,0.9-7.2,2.7c-1.7,1.8-2.8,4.1-3.2,7.2H157.5z M157.5,121.2"/>
</svg>
