<?xml version="1.0" encoding="utf-8"?>
<!-- Generator: Adobe Illustrator 18.0.0, SVG Export Plug-In . SVG Version: 6.00 Build 0)  -->
<!DOCTYPE svg PUBLIC "-//W3C//DTD SVG 1.1//EN" "http://www.w3.org/Graphics/SVG/1.1/DTD/svg11.dtd">
<svg version="1.1" id="Layer_1" xmlns="http://www.w3.org/2000/svg" xmlns:xlink="http://www.w3.org/1999/xlink" x="0px" y="0px"
	 viewBox="0 0 44.5 54.5" enable-background="new 0 0 44.5 54.5" xml:space="preserve">
<path d="M33.3,4.3H11.4C7.9,4.3,5,7.2,5,10.8v32.3c0,3.6,2.9,6.4,6.4,6.4h21.8c3.6,0,6.4-2.9,6.4-6.4V10.8
	C39.7,7.2,36.8,4.3,33.3,4.3z M22.3,45.7c-1.3,0-2.3-1-2.3-2.3s1-2.3,2.3-2.3c1.3,0,2.3,1,2.3,2.3S23.6,45.7,22.3,45.7z M35.7,38.9
	H9V10.8c0-1.3,1.1-2.4,2.4-2.4h21.8c1.3,0,2.4,1.1,2.4,2.4V38.9z"/>
</svg>
