<?xml version="1.0" encoding="utf-8"?>
<!-- Generator: Adobe Illustrator 18.0.0, SVG Export Plug-In . SVG Version: 6.00 Build 0)  -->
<!DOCTYPE svg PUBLIC "-//W3C//DTD SVG 1.1//EN" "http://www.w3.org/Graphics/SVG/1.1/DTD/svg11.dtd">
<svg version="1.1" id="Layer_1" xmlns="http://www.w3.org/2000/svg" xmlns:xlink="http://www.w3.org/1999/xlink" x="0px" y="0px"
	 viewBox="0 0 33 45.8" enable-background="new 0 0 33 45.8" xml:space="preserve">
<path d="M23.3,3.6H9.8c-2.6,0-4.7,2.1-4.7,4.7V36c0,2.6,2.1,4.7,4.7,4.7h13.5c2.6,0,4.7-2.1,4.7-4.7V8.4C28.1,5.7,25.9,3.6,23.3,3.6
	z M16.6,36.7c-1.3,0-2.3-1-2.3-2.3c0-1.3,1-2.3,2.3-2.3c1.3,0,2.3,1,2.3,2.3C18.9,35.7,17.8,36.7,16.6,36.7z M24.1,30.1H9.1V8.4
	c0-0.4,0.3-0.7,0.7-0.7h13.5c0.4,0,0.7,0.3,0.7,0.7V30.1z"/>
</svg>
