<?xml version="1.0" encoding="utf-8"?>
<!-- Generator: Adobe Illustrator 18.0.0, SVG Export Plug-In . SVG Version: 6.00 Build 0)  -->
<!DOCTYPE svg PUBLIC "-//W3C//DTD SVG 1.1//EN" "http://www.w3.org/Graphics/SVG/1.1/DTD/svg11.dtd">
<svg version="1.1" id="Layer_1" xmlns="http://www.w3.org/2000/svg" xmlns:xlink="http://www.w3.org/1999/xlink" x="0px" y="0px"
	 viewBox="0 0 59.9 52.8" enable-background="new 0 0 59.9 52.8" xml:space="preserve">
<path d="M36.4,49.3h-13c-1.7,0-3-1.1-2.6-2.2l2.3-6.6h13.6l2.3,6.6C39.4,48.3,38.1,49.3,36.4,49.3z"/>
<path d="M49.1,7.4c1.3,0,2.4,1.1,2.4,2.4v22.3c0,1.3-1.1,2.4-2.4,2.4H10.8c-1.3,0-2.4-1.1-2.4-2.4V9.9c0-1.3,1.1-2.4,2.4-2.4H49.1
	 M49.1,3.4H10.8c-3.6,0-6.4,2.9-6.4,6.4v22.3c0,3.6,2.9,6.4,6.4,6.4h38.3c3.6,0,6.4-2.9,6.4-6.4V9.9C55.5,6.3,52.6,3.4,49.1,3.4
	L49.1,3.4z"/>
</svg>
