<?xml version="1.0" encoding="utf-8"?>
<!-- Generator: Adobe Illustrator 18.0.0, SVG Export Plug-In . SVG Version: 6.00 Build 0)  -->
<!DOCTYPE svg PUBLIC "-//W3C//DTD SVG 1.1//EN" "http://www.w3.org/Graphics/SVG/1.1/DTD/svg11.dtd">
<svg version="1.1" id="Layer_1" xmlns="http://www.w3.org/2000/svg" xmlns:xlink="http://www.w3.org/1999/xlink" x="0px" y="0px"
	 viewBox="0 0 236.1 239.1" enable-background="new 0 0 236.1 239.1" xml:space="preserve">
<g>
	<path d="M125.1,109.8l72.8-26.1c3.5-1.3,2.6-6.5-1.1-6.4L118,77.6c-2.4,0-4.8,0.4-7.1,1.2l-72.8,26.1c-3.5,1.3-2.6,6.5,1.1,6.4
		l19.2,0l-2.5,18.9c-1.7,0.3-3,1.7-3.2,3.4c-0.1,1.1,0.2,2.1,0.8,2.8c-0.6,2-4,13.3-4.8,24.3c-0.5,6.6,9.3,7.5,10.1,1
		c1.5-12.5,0.5-22.7,0.3-24.7c0.8-0.6,1.3-1.5,1.4-2.6c0.2-1.7-0.8-3.2-2.2-3.9l2.6-19.2l57.2-0.3
		C120.5,111,122.9,110.6,125.1,109.8z M114.2,87.4c4-2,8-2,9,0c1,2-1.5,5.2-5.4,7.1c-4,2-8,2-9,0S110.2,89.4,114.2,87.4z"/>
	<path d="M163.4,104.5l-38.8,14.2c-1.3,0.5-2.7,0.7-4,0.7l-53.3,0.3c-0.5,1.3-1,2.5-1.3,3.9c-0.9,3.4,1.6,6.7,5.1,7.1
		C91.3,132.8,93,146,121.8,146c29.2,0,25.7-13.5,50.6-15.4c3.6-0.3,6.2-3.7,5.3-7.3C175.7,115.8,170.6,109.4,163.4,104.5z"/>
</g>
</svg>
