<?xml version="1.0" encoding="utf-8"?>
<!-- Generator: Adobe Illustrator 18.0.0, SVG Export Plug-In . SVG Version: 6.00 Build 0)  -->
<!DOCTYPE svg PUBLIC "-//W3C//DTD SVG 1.1//EN" "http://www.w3.org/Graphics/SVG/1.1/DTD/svg11.dtd">
<svg version="1.1" id="Layer_1" xmlns="http://www.w3.org/2000/svg" xmlns:xlink="http://www.w3.org/1999/xlink" x="0px" y="0px"
	 viewBox="0 0 236 239" enable-background="new 0 0 236 239" xml:space="preserve">
<path d="M171.5,90.8h-19.3v-3.9c0-8.3-6.8-15-15-15H98.7c-8.3,0-15,6.8-15,15v3.9H64.5c-10.5,0-19,8.5-19,19v17.8l3.1,0.7
	c0.1,0,0.4,0.1,0.9,0.2v43c0,8.3,6.8,15,15,15h107.1c8.3,0,15-6.8,15-15v-43c0.5-0.1,0.8-0.2,0.9-0.2l3.1-0.7v-17.8
	C190.6,99.3,182.1,90.8,171.5,90.8z M91.7,86.9c0-3.9,3.2-7,7-7h38.5c3.9,0,7,3.2,7,7v3.9H91.7V86.9z M53.4,109.8c0-6.1,5-11,11-11
	h107.1c6.1,0,11,5,11,11v11.3c-8.4,1.6-32.9,5.7-64.6,5.7c-31.7,0-56.2-4.1-64.6-5.7V109.8z M178.6,171.5c0,3.9-3.2,7-7,7H64.5
	c-3.9,0-7-3.2-7-7V130c10.2,1.7,28.5,4.2,51.6,4.8v9c0,2.3,1.8,4.1,4.1,4.1h9.8c2.3,0,4.1-1.8,4.1-4.1v-9c23.1-0.5,41.4-3,51.6-4.8
	V171.5z"/>
</svg>
