<?xml version="1.0" encoding="utf-8"?>
<!-- Generator: Adobe Illustrator 18.1.1, SVG Export Plug-In . SVG Version: 6.00 Build 0)  -->
<!DOCTYPE svg PUBLIC "-//W3C//DTD SVG 1.1//EN" "http://www.w3.org/Graphics/SVG/1.1/DTD/svg11.dtd">
<svg version="1.1" id="Layer_1" xmlns:sketch="http://www.bohemiancoding.com/sketch/ns"
	 xmlns="http://www.w3.org/2000/svg" xmlns:xlink="http://www.w3.org/1999/xlink" x="0px" y="0px" viewBox="-194.3 501 124 124"
	 enable-background="new -194.3 501 124 124" xml:space="preserve">
<title>designspiration</title>
<desc>Created with Sketch.</desc>
<path fill="#FFFFFF" d="M-131.9,527.3c-20.2,0-36.6,16.3-36.6,36.6c0,16.1,10.5,29.9,25,34.7c1.9,0.3,2.5-0.8,2.5-1.8
	c0-0.9-0.1-3.2-0.1-6.2c-10.2,2.2-12.3-4.9-12.3-4.9c-1.7-4.2-4-5.3-4-5.3c-3.3-2.3,0.3-2.2,0.3-2.2c3.6,0.3,5.6,3.8,5.6,3.8
	c3.3,5.6,8.6,4,10.6,3.1c0.3-2.3,1.2-4,2.3-4.9c-8.1-0.9-16.7-4-16.7-18.1c0-4,1.4-7.3,3.8-9.8c-0.4-0.9-1.6-4.6,0.4-9.7
	c0,0,3.1-1,10,3.8c2.9-0.8,6.1-1.2,9.2-1.2c3.1,0,6.2,0.4,9.2,1.2c7-4.7,10-3.8,10-3.8c2,5,0.8,8.8,0.4,9.7c2.3,2.6,3.8,5.8,3.8,9.8
	c0,14.1-8.6,17.1-16.7,18c1.3,1.1,2.5,3.4,2.5,6.8c0,4.9-0.1,8.8-0.1,10c0,1,0.7,2.1,2.5,1.8c14.5-4.9,25-18.5,25-34.7
	C-95.4,543.7-111.7,527.3-131.9,527.3z"/>
</svg>
