<?xml version="1.0" encoding="utf-8"?>
<!-- Generator: Adobe Illustrator 18.1.1, SVG Export Plug-In . SVG Version: 6.00 Build 0)  -->
<!DOCTYPE svg PUBLIC "-//W3C//DTD SVG 1.1//EN" "http://www.w3.org/Graphics/SVG/1.1/DTD/svg11.dtd">
<svg version="1.1" id="Layer_1" xmlns="http://www.w3.org/2000/svg" xmlns:xlink="http://www.w3.org/1999/xlink" x="0px" y="0px"
	 viewBox="0 0 236.3 239.3" enable-background="new 0 0 236.3 239.3" xml:space="preserve">
<g>
	<path fill-rule="evenodd" clip-rule="evenodd" fill="#FFFFFF" d="M130.4,79.9h-23.5c-3.1,0-6.5,0.4-10,1.1
		c-3.6,0.8-7.1,2.6-10.4,5.4c-4.9,4.7-7.3,10-7.3,15.8c0,4.8,1.7,9,5.2,12.6c3.3,3.9,8.1,5.9,14.3,5.9c1.2,0,2.4-0.1,3.8-0.2
		c-0.2,0.6-0.5,1.3-0.7,2c-0.3,0.7-0.4,1.6-0.4,2.6c0,1.7,0.4,3.2,1.2,4.5c0.7,1.3,1.4,2.5,2.3,3.6c-2.7,0.1-6.2,0.4-10.3,1
		c-4.2,0.7-8.2,2.2-12,4.4c-3.4,2-5.7,4.4-7,7.1c-1.3,2.7-2,5.1-2,7.3c0,4.5,2.1,8.3,6.1,11.6c4.1,3.4,10.2,5.2,18.4,5.3
		c9.8-0.2,17.4-2.5,22.6-7.1c5-4.4,7.5-9.5,7.5-15.2c-0.1-4-1-7.3-2.7-9.8c-1.9-2.5-4-4.7-6.5-6.7l-4-3.3c-0.6-0.6-1.2-1.2-1.8-2
		c-0.7-0.8-1.1-1.8-1.1-3.1c0-1.3,0.4-2.4,1.1-3.3c0.6-0.9,1.2-1.7,1.9-2.5c1.2-1.1,2.4-2.1,3.5-3.2c1-1,1.9-2.2,2.8-3.4
		c1.8-2.5,2.7-5.9,2.8-10.1c0-2.3-0.3-4.3-0.8-6c-0.6-1.7-1.3-3.2-2.2-4.5c-0.8-1.3-1.7-2.5-2.6-3.4c-0.9-0.9-1.8-1.6-2.5-2h7.3
		L130.4,79.9z M117.5,144.3c1.9,2.2,2.9,4.8,2.9,7.8c0,3.7-1.4,6.7-4.3,9c-2.9,2.4-7.2,3.6-12.7,3.7c-6.2-0.1-11-1.5-14.6-4.1
		c-3.7-2.7-5.6-6.1-5.6-10.3c0-2.1,0.4-3.9,1.3-5.4c0.7-1.4,1.7-2.6,2.8-3.6c1.1-0.9,2.2-1.6,3.3-2.1c1.1-0.5,1.9-0.8,2.5-1
		c2.5-0.8,5-1.3,7.5-1.7c2.5-0.2,4-0.3,4.6-0.2c1,0,1.9,0,2.6,0.1C112.2,139.6,115.5,142.2,117.5,144.3z M113.7,109.5
		c-0.3,1.6-0.9,3.1-1.9,4.6c-2.1,2.1-4.6,3.2-7.7,3.3c-2.5,0-4.6-0.7-6.5-2.3c-1.9-1.5-3.5-3.3-4.7-5.5c-2.5-4.6-3.7-9.1-3.7-13.3
		c-0.1-3.2,0.8-6.2,2.6-8.8c2.1-2.5,4.8-3.8,7.9-3.9c2.4,0.1,4.5,0.8,6.4,2.1c1.8,1.4,3.3,3.3,4.4,5.5c2.4,4.7,3.6,9.4,3.6,14.1
		C114,106.6,113.9,108,113.7,109.5z M167.1,116.7L167.1,116.7l-12.4-0.1V104h-7.2v12.6H135v7h0.1v0.3h12.4v12.4h7.2v-12.4h12.7v-7.2
		H167.1z"/>
</g>
</svg>
