<?xml version="1.0" encoding="utf-8"?>
<!-- Generator: Adobe Illustrator 18.0.0, SVG Export Plug-In . SVG Version: 6.00 Build 0)  -->
<!DOCTYPE svg PUBLIC "-//W3C//DTD SVG 1.1//EN" "http://www.w3.org/Graphics/SVG/1.1/DTD/svg11.dtd">
<svg version="1.1" id="Layer_1" xmlns="http://www.w3.org/2000/svg" xmlns:xlink="http://www.w3.org/1999/xlink" x="0px" y="0px"
	 viewBox="0 0 381.3 567.2" enable-background="new 0 0 381.3 567.2" xml:space="preserve">
<g>
	<g>
		<g>
			
				<linearGradient id="SVGID_1_" gradientUnits="userSpaceOnUse" x1="967.0696" y1="-360.6614" x2="936.4241" y2="-396.6779" gradientTransform="matrix(1 0 0 1 -695.5234 481.7172)">
				<stop  offset="0" style="stop-color:#010101"/>
				<stop  offset="0.5" style="stop-color:#A8B3C0"/>
				<stop  offset="1" style="stop-color:#010101"/>
			</linearGradient>
			<path fill="url(#SVGID_1_)" d="M381.3,263.1V26.5c0-14.6-11.9-26.5-26.5-26.5H194v263.1H381.3z"/>
			
				<linearGradient id="SVGID_2_" gradientUnits="userSpaceOnUse" x1="774.7032" y1="-328.9532" x2="835.8331" y2="-377.9992" gradientTransform="matrix(1 0 0 1 -695.5234 481.7172)">
				<stop  offset="0" style="stop-color:#010101"/>
				<stop  offset="0.5" style="stop-color:#A8B3C0"/>
				<stop  offset="1" style="stop-color:#010101"/>
			</linearGradient>
			<path fill="url(#SVGID_2_)" d="M194,0H26.5C11.9,0,0,11.9,0,26.5v236.6l194,0V0z"/>
			
				<linearGradient id="SVGID_3_" gradientUnits="userSpaceOnUse" x1="799.058" y1="-67.7044" x2="849.7653" y2="-15.1015" gradientTransform="matrix(1 0 0 1 -695.5234 481.7172)">
				<stop  offset="0" style="stop-color:#010101"/>
				<stop  offset="0.5" style="stop-color:#818994"/>
				<stop  offset="1" style="stop-color:#010101"/>
			</linearGradient>
			<path fill="url(#SVGID_3_)" d="M0,263.1v277.5c0,14.6,11.9,26.5,26.5,26.5H194v-304L0,263.1z"/>
			
				<linearGradient id="SVGID_4_" gradientUnits="userSpaceOnUse" x1="973.5963" y1="-62.7306" x2="911.0421" y2="20.2013" gradientTransform="matrix(1 0 0 1 -695.5234 481.7172)">
				<stop  offset="0" style="stop-color:#010101"/>
				<stop  offset="0.5" style="stop-color:#818994"/>
				<stop  offset="1" style="stop-color:#010101"/>
			</linearGradient>
			<path fill="url(#SVGID_4_)" d="M194,263.1v304h160.8c14.6,0,26.5-11.9,26.5-26.5V263.1H194z"/>
		</g>
		<path fill="#2A2A2A" d="M354.8,563.8H26.5c-12.8,0-23.2-10.4-23.2-23.2V26.5c0-12.8,10.4-23.2,23.2-23.2h328.2
			c12.8,0,23.2,10.4,23.2,23.2v514.1C378,553.4,367.6,563.8,354.8,563.8L354.8,563.8z"/>
		<path fill="#131517" d="M377.5,540.6c0,12.5-10.2,22.7-22.7,22.7H26.5c-12.5,0-22.7-10.2-22.7-22.7V26.5C3.8,14,14,3.8,26.5,3.8
			h328.2c12.5,0,22.7,10.2,22.7,22.7V540.6z"/>
		<g>
			<path fill="#2A2A2A" d="M361.5,511.1c0,0.4-0.3,0.7-0.7,0.7s-1.1,0-1.7,0H21.9c-0.5,0-1.3,0-1.7,0c-0.4,0-0.7-0.3-0.7-0.7
				s0-1.1,0-1.7V58.3c0-0.5,0-1.3,0-1.7c0-0.4,0.3-0.7,0.7-0.7c0.4,0,1.1,0,1.7,0l337.3,0c0.5,0,1.3,0,1.7,0s0.7,0.3,0.7,0.7
				c0,0.4,0,1.1,0,1.7v451.2C361.5,510,361.5,510.8,361.5,511.1z"/>
		</g>
		<g>
			
				<linearGradient id="SVGID_5_" gradientUnits="userSpaceOnUse" x1="885.91" y1="73.0173" x2="885.9968" y2="47.8579" gradientTransform="matrix(1 0 0 1 -695.5234 481.7172)">
				<stop  offset="0" style="stop-color:#858585"/>
				<stop  offset="0.533" style="stop-color:#242424"/>
				<stop  offset="0.5934" style="stop-color:#222222"/>
				<stop  offset="1" style="stop-color:#4C4C4C"/>
			</linearGradient>
			<path fill="url(#SVGID_5_)" d="M204.1,540.8c0,7.5-6.1,13.7-13.7,13.7c-7.6,0-13.7-6.1-13.7-13.7c0-7.5,6.1-13.7,13.7-13.7
				C198,527.2,204.1,533.3,204.1,540.8z"/>
			<path fill="#434343" d="M190.4,527.2c7.5,0,13.6,6,13.7,13.5c0-0.1,0-0.1,0-0.2c0-7.7-6.1-14-13.7-14c-7.6,0-13.7,6.3-13.7,14
				c0,0.1,0,0.1,0,0.2C176.9,533.2,182.9,527.2,190.4,527.2z"/>
			<path fill="#010101" d="M190.4,527.2c-7.6,0-13.7,6.1-13.7,13.7c0,0.4,0,0.8,0.1,1.1c3.8,0.4,7.9,0.7,12.1,0.7
				c5.4,0,10.5-0.4,15.1-1.1c0-0.2,0-0.5,0-0.8C204.1,533.3,198,527.2,190.4,527.2z"/>
			<path fill="#BFC0C3" d="M193.6,545.4h-6.4c-1,0-1.7-0.8-1.7-1.7v-6.2c0-1,0.8-1.7,1.7-1.7h6.4c1,0,1.7,0.8,1.7,1.7v6.2
				C195.3,544.6,194.5,545.4,193.6,545.4L193.6,545.4z M187.4,536.2c-0.8,0-1.4,0.6-1.4,1.4v5.8c0,0.8,0.6,1.4,1.4,1.4h5.9
				c0.8,0,1.4-0.6,1.4-1.4v-5.8c0-0.8-0.6-1.4-1.4-1.4H187.4L187.4,536.2z"/>
		</g>
		<g>
			
				<linearGradient id="SVGID_6_" gradientUnits="userSpaceOnUse" x1="888.5496" y1="-449.346" x2="882.9247" y2="-453.9053" gradientTransform="matrix(1 0 0 1 -695.5234 481.7172)">
				<stop  offset="0" style="stop-color:#323233"/>
				<stop  offset="1" style="stop-color:#010101"/>
			</linearGradient>
			<path fill="url(#SVGID_6_)" d="M194.4,30.4c0,2.1-1.7,3.9-3.9,3.9c-2.2,0-3.9-1.7-3.9-3.9c0-2.2,1.7-3.9,3.9-3.9
				C192.7,26.5,194.4,28.2,194.4,30.4z"/>
			<g>
				<g>
					<g>
						<path fill="none" d="M190.5,28.6c-1,0-1.8,0.8-1.8,1.8c0,1,0.8,1.8,1.8,1.8s1.8-0.8,1.8-1.8C192.3,29.4,191.5,28.6,190.5,28.6
							z"/>
						<path fill="#101924" d="M190.5,32.1c-1,0-1.8-0.8-1.8-1.8c0-1,0.8-1.8,1.8-1.8s1.8,0.8,1.8,1.8
							C192.3,31.3,191.5,32.1,190.5,32.1z M190.5,28.2c-1.2,0-2.1,1-2.1,2.1c0,1.2,1,2.1,2.1,2.1c1.2,0,2.1-1,2.1-2.1
							C192.7,29.2,191.7,28.2,190.5,28.2z"/>
					</g>
					<g>
						<circle fill="none" cx="190.5" cy="30.4" r="1.8"/>
						<path fill="#17202B" d="M190.5,32.2c-1,0-1.8-0.8-1.8-1.8c0-1,0.8-1.8,1.8-1.8c1,0,1.8,0.8,1.8,1.8
							C192.4,31.4,191.5,32.2,190.5,32.2z M190.5,28.3c-1.2,0-2.1,0.9-2.1,2.1c0,1.2,0.9,2.1,2.1,2.1c1.2,0,2.1-0.9,2.1-2.1
							C192.7,29.2,191.7,28.3,190.5,28.3z"/>
					</g>
					<g>
						<path fill="none" d="M190.5,28.5c-1,0-1.8,0.8-1.8,1.8c0,1,0.8,1.8,1.8,1.8c1,0,1.8-0.8,1.8-1.8
							C192.4,29.3,191.6,28.5,190.5,28.5z"/>
						<path fill="#1D2631" d="M190.5,32.2c-1,0-1.8-0.8-1.8-1.8c0-1,0.8-1.8,1.8-1.8c1,0,1.8,0.8,1.8,1.8
							C192.4,31.4,191.6,32.2,190.5,32.2z M190.5,28.3c-1.1,0-2.1,0.9-2.1,2.1c0,1.1,0.9,2.1,2.1,2.1c1.2,0,2.1-0.9,2.1-2.1
							C192.6,29.2,191.7,28.3,190.5,28.3z"/>
					</g>
					<g>
						<path fill="none" d="M190.5,28.5c-1,0-1.9,0.8-1.9,1.9c0,1,0.8,1.9,1.9,1.9c1,0,1.9-0.8,1.9-1.9
							C192.4,29.3,191.6,28.5,190.5,28.5z"/>
						<path fill="#222C37" d="M190.5,32.2c-1,0-1.9-0.8-1.9-1.9c0-1,0.8-1.9,1.9-1.9c1,0,1.9,0.8,1.9,1.9
							C192.4,31.4,191.6,32.2,190.5,32.2z M190.5,28.3c-1.1,0-2.1,0.9-2.1,2.1c0,1.1,0.9,2.1,2.1,2.1c1.1,0,2.1-0.9,2.1-2.1
							C192.6,29.2,191.7,28.3,190.5,28.3z"/>
					</g>
					<g>
						<path fill="none" d="M190.5,28.5c-1,0-1.9,0.8-1.9,1.9c0,1,0.8,1.9,1.9,1.9c1,0,1.9-0.8,1.9-1.9
							C192.4,29.3,191.6,28.5,190.5,28.5z"/>
						<path fill="#28323D" d="M190.5,32.2c-1,0-1.9-0.8-1.9-1.9c0-1,0.8-1.9,1.9-1.9c1,0,1.9,0.8,1.9,1.9
							C192.4,31.4,191.6,32.2,190.5,32.2z M190.5,28.3c-1.1,0-2,0.9-2,2c0,1.1,0.9,2,2,2c1.1,0,2-0.9,2-2
							C192.6,29.2,191.7,28.3,190.5,28.3z"/>
					</g>
					<g>
						<path fill="none" d="M190.5,28.4c-1.1,0-1.9,0.9-1.9,1.9c0,1,0.9,1.9,1.9,1.9c1.1,0,1.9-0.9,1.9-1.9
							C192.5,29.3,191.6,28.4,190.5,28.4z"/>
						<path fill="#2D3843" d="M190.5,32.3c-1.1,0-1.9-0.9-1.9-1.9c0-1.1,0.9-1.9,1.9-1.9c1.1,0,1.9,0.9,1.9,1.9
							C192.5,31.4,191.6,32.3,190.5,32.3z M190.5,28.3c-1.1,0-2,0.9-2,2c0,1.1,0.9,2,2,2c1.1,0,2-0.9,2-2
							C192.6,29.2,191.7,28.3,190.5,28.3z"/>
					</g>
					<g>
						<path fill="none" d="M190.5,28.4c-1.1,0-1.9,0.9-1.9,1.9c0,1.1,0.9,1.9,1.9,1.9c1.1,0,1.9-0.9,1.9-1.9
							C192.5,29.3,191.6,28.4,190.5,28.4z"/>
						<path fill="#333E4A" d="M190.5,32.3c-1.1,0-1.9-0.9-1.9-1.9c0-1.1,0.9-1.9,1.9-1.9c1.1,0,1.9,0.9,1.9,1.9
							C192.5,31.4,191.6,32.3,190.5,32.3z M190.5,28.4c-1.1,0-2,0.9-2,2c0,1.1,0.9,2,2,2c1.1,0,2-0.9,2-2
							C192.5,29.3,191.6,28.4,190.5,28.4z"/>
					</g>
				</g>
				
					<radialGradient id="SVGID_7_" cx="886.0663" cy="-451.3574" r="1.7165" gradientTransform="matrix(1 0 0 1 -695.5234 481.7172)" gradientUnits="userSpaceOnUse">
					<stop  offset="0.6264" style="stop-color:#093547"/>
					<stop  offset="1" style="stop-color:#0B1526"/>
				</radialGradient>
				<path fill="url(#SVGID_7_)" d="M192.3,30.4c0,1-0.8,1.8-1.8,1.8s-1.8-0.8-1.8-1.8c0-1,0.8-1.8,1.8-1.8S192.3,29.4,192.3,30.4z"
					/>
				<g>
					
						<radialGradient id="SVGID_8_" cx="886.0602" cy="-451.4061" r="1.1345" gradientTransform="matrix(1 0 0 1 -695.5234 481.7172)" gradientUnits="userSpaceOnUse">
						<stop  offset="0.6264" style="stop-color:#093547"/>
						<stop  offset="1" style="stop-color:#0B1526"/>
					</radialGradient>
					<path fill="url(#SVGID_8_)" d="M191.6,30.4c0,0.6-0.5,1.1-1.1,1.1c-0.6,0-1.1-0.5-1.1-1.1s0.5-1.1,1.1-1.1
						C191.1,29.3,191.6,29.8,191.6,30.4z"/>
					<path d="M190.9,30.4c0,0.2-0.1,0.3-0.3,0.3c-0.2,0-0.3-0.1-0.3-0.3c0-0.2,0.1-0.3,0.3-0.3C190.7,30,190.9,30.2,190.9,30.4z"/>
					<circle opacity="0.5" fill="#FFFFFF" cx="190.4" cy="30.1" r="0.1"/>
					<path opacity="0.5" fill="#FFFFFF" d="M191,30.6c0,0.1-0.1,0.2-0.2,0.2c-0.1,0-0.2-0.1-0.2-0.2c0-0.1,0.1-0.2,0.2-0.2
						C190.9,30.4,191,30.5,191,30.6z"/>
				</g>
				<path opacity="0.2" fill="#F5EB1D" d="M188.4,30.4c0,0.1,0,0.1,0,0.2c0.1,0,0.2,0,0.3,0c0.7,0,1.2-0.6,1.2-1.4
					c0-0.3-0.1-0.6-0.3-0.8C189,28.7,188.4,29.5,188.4,30.4z"/>
			</g>
		</g>
		<rect x="21" y="57.4" fill="#FFFFFF" width="339.2" height="453"/>
	</g>
</g>
</svg>
