<?xml version="1.0" encoding="utf-8"?>
<!-- Generator: Adobe Illustrator 18.0.0, SVG Export Plug-In . SVG Version: 6.00 Build 0)  -->
<!DOCTYPE svg PUBLIC "-//W3C//DTD SVG 1.1//EN" "http://www.w3.org/Graphics/SVG/1.1/DTD/svg11.dtd">
<svg version="1.1" id="Layer_1" xmlns="http://www.w3.org/2000/svg" xmlns:xlink="http://www.w3.org/1999/xlink" x="0px" y="0px"
	 viewBox="0 0 567.2 381.3" enable-background="new 0 0 567.2 381.3" xml:space="preserve">
<g>
	<g>
		<g>
			
				<linearGradient id="SVGID_1_" gradientUnits="userSpaceOnUse" x1="1060.0054" y1="-453.5972" x2="1029.3599" y2="-489.6137" gradientTransform="matrix(4.489659e-11 1 -1 4.489659e-11 -7.4924 -788.4592)">
				<stop  offset="0" style="stop-color:#010101"/>
				<stop  offset="0.5" style="stop-color:#A8B3C0"/>
				<stop  offset="1" style="stop-color:#010101"/>
			</linearGradient>
			<path fill="url(#SVGID_1_)" d="M304,381.3h236.6c14.6,0,26.5-11.9,26.5-26.5V194H304V381.3z"/>
			
				<linearGradient id="SVGID_2_" gradientUnits="userSpaceOnUse" x1="867.639" y1="-421.889" x2="928.7689" y2="-470.935" gradientTransform="matrix(4.489659e-11 1 -1 4.489659e-11 -7.4924 -788.4592)">
				<stop  offset="0" style="stop-color:#010101"/>
				<stop  offset="0.5" style="stop-color:#A8B3C0"/>
				<stop  offset="1" style="stop-color:#010101"/>
			</linearGradient>
			<path fill="url(#SVGID_2_)" d="M567.2,194V26.5c0-14.6-11.9-26.5-26.5-26.5L304,0l0,194H567.2z"/>
			
				<linearGradient id="SVGID_3_" gradientUnits="userSpaceOnUse" x1="891.9938" y1="-160.6402" x2="942.701" y2="-108.0373" gradientTransform="matrix(4.489659e-11 1 -1 4.489659e-11 -7.4924 -788.4592)">
				<stop  offset="0" style="stop-color:#010101"/>
				<stop  offset="0.5" style="stop-color:#818994"/>
				<stop  offset="1" style="stop-color:#010101"/>
			</linearGradient>
			<path fill="url(#SVGID_3_)" d="M304,0L26.5,0C11.9,0,0,11.9,0,26.5L0,194h304L304,0z"/>
			
				<linearGradient id="SVGID_4_" gradientUnits="userSpaceOnUse" x1="1066.5321" y1="-155.6664" x2="1003.9778" y2="-72.7345" gradientTransform="matrix(4.489659e-11 1 -1 4.489659e-11 -7.4924 -788.4592)">
				<stop  offset="0" style="stop-color:#010101"/>
				<stop  offset="0.5" style="stop-color:#818994"/>
				<stop  offset="1" style="stop-color:#010101"/>
			</linearGradient>
			<path fill="url(#SVGID_4_)" d="M304,194H0l0,160.8c0,14.6,11.9,26.5,26.5,26.5H304V194z"/>
		</g>
		<path fill="#2A2A2A" d="M3.3,354.8V26.5c0-12.8,10.4-23.2,23.2-23.2h514.1c12.8,0,23.2,10.4,23.2,23.2v328.2
			c0,12.8-10.4,23.2-23.2,23.2H26.5C13.7,378,3.3,367.6,3.3,354.8L3.3,354.8z"/>
		<path fill="#131517" d="M26.5,377.5c-12.5,0-22.7-10.2-22.7-22.7V26.5C3.8,14,14,3.8,26.5,3.8h514.1c12.5,0,22.7,10.2,22.7,22.7
			v328.2c0,12.5-10.2,22.7-22.7,22.7H26.5z"/>
		<g>
			<path fill="#2A2A2A" d="M56,361.5c-0.4,0-0.7-0.3-0.7-0.7s0-1.1,0-1.7V21.9c0-0.5,0-1.3,0-1.7c0-0.4,0.3-0.7,0.7-0.7
				c0.4,0,1.1,0,1.7,0h451.2c0.5,0,1.3,0,1.7,0c0.4,0,0.7,0.3,0.7,0.7c0,0.4,0,1.1,0,1.7l0,337.3c0,0.5,0,1.3,0,1.7
				s-0.3,0.7-0.7,0.7c-0.4,0-1.1,0-1.7,0H57.7C57.2,361.5,56.4,361.5,56,361.5z"/>
		</g>
		<g>
			
				<linearGradient id="SVGID_5_" gradientUnits="userSpaceOnUse" x1="978.8458" y1="-19.9185" x2="978.9326" y2="-45.0779" gradientTransform="matrix(1 0 0 1 -952.2551 224.5656)">
				<stop  offset="0" style="stop-color:#858585"/>
				<stop  offset="0.533" style="stop-color:#242424"/>
				<stop  offset="0.5934" style="stop-color:#222222"/>
				<stop  offset="1" style="stop-color:#4C4C4C"/>
			</linearGradient>
			<path fill="url(#SVGID_5_)" d="M40.3,190.8c0,7.5-6.1,13.7-13.7,13.7c-7.6,0-13.7-6.1-13.7-13.7c0-7.5,6.1-13.7,13.7-13.7
				C34.2,177.1,40.3,183.2,40.3,190.8z"/>
			<path fill="#434343" d="M26.6,177.1c7.5,0,13.6,6,13.7,13.5c0-0.1,0-0.1,0-0.2c0-7.7-6.1-14-13.7-14c-7.6,0-13.7,6.3-13.7,14
				c0,0.1,0,0.1,0,0.2C13.1,183.1,19.1,177.1,26.6,177.1z"/>
			<path fill="#010101" d="M26.6,177.1c-7.6,0-13.7,6.1-13.7,13.7c0,0.4,0,0.8,0.1,1.1c3.8,0.4,7.9,0.7,12.1,0.7
				c5.4,0,10.5-0.4,15.1-1.1c0-0.2,0-0.5,0-0.8C40.3,183.2,34.2,177.1,26.6,177.1z"/>
			<path fill="#BFC0C3" d="M29.8,195.3h-6.4c-1,0-1.7-0.8-1.7-1.7v-6.2c0-1,0.8-1.7,1.7-1.7h6.4c1,0,1.7,0.8,1.7,1.7v6.2
				C31.5,194.5,30.7,195.3,29.8,195.3L29.8,195.3z M23.6,186.1c-0.8,0-1.4,0.6-1.4,1.4v5.8c0,0.8,0.6,1.4,1.4,1.4h5.9
				c0.8,0,1.4-0.6,1.4-1.4v-5.8c0-0.8-0.6-1.4-1.4-1.4H23.6L23.6,186.1z"/>
		</g>
		<g>
			
				<linearGradient id="SVGID_6_" gradientUnits="userSpaceOnUse" x1="981.4854" y1="-542.2818" x2="975.8605" y2="-546.8411" gradientTransform="matrix(4.489659e-11 1 -1 4.489659e-11 -7.4924 -788.4592)">
				<stop  offset="0" style="stop-color:#323233"/>
				<stop  offset="1" style="stop-color:#010101"/>
			</linearGradient>
			<path fill="url(#SVGID_6_)" d="M536.8,194.4c-2.1,0-3.9-1.7-3.9-3.9c0-2.2,1.7-3.9,3.9-3.9c2.2,0,3.9,1.7,3.9,3.9
				C540.7,192.7,539,194.4,536.8,194.4z"/>
			<g>
				<g>
					<g>
						<path fill="none" d="M538.6,190.5c0-1-0.8-1.8-1.8-1.8c-1,0-1.8,0.8-1.8,1.8s0.8,1.8,1.8,1.8
							C537.8,192.3,538.6,191.5,538.6,190.5z"/>
						<path fill="#101924" d="M535,190.5c0-1,0.8-1.8,1.8-1.8c1,0,1.8,0.8,1.8,1.8s-0.8,1.8-1.8,1.8
							C535.8,192.3,535,191.5,535,190.5z M538.9,190.5c0-1.2-1-2.1-2.1-2.1c-1.2,0-2.1,1-2.1,2.1c0,1.2,1,2.1,2.1,2.1
							C538,192.7,538.9,191.7,538.9,190.5z"/>
					</g>
					<g>
						<circle fill="none" cx="536.8" cy="190.5" r="1.8"/>
						<path fill="#17202B" d="M535,190.5c0-1,0.8-1.8,1.8-1.8c1,0,1.8,0.8,1.8,1.8c0,1-0.8,1.8-1.8,1.8
							C535.8,192.4,535,191.5,535,190.5z M538.9,190.5c0-1.2-0.9-2.1-2.1-2.1c-1.2,0-2.1,0.9-2.1,2.1c0,1.2,0.9,2.1,2.1,2.1
							C538,192.7,538.9,191.7,538.9,190.5z"/>
					</g>
					<g>
						<path fill="none" d="M538.6,190.5c0-1-0.8-1.8-1.8-1.8c-1,0-1.8,0.8-1.8,1.8c0,1,0.8,1.8,1.8,1.8
							C537.8,192.4,538.6,191.6,538.6,190.5z"/>
						<path fill="#1D2631" d="M535,190.5c0-1,0.8-1.8,1.8-1.8c1,0,1.8,0.8,1.8,1.8c0,1-0.8,1.8-1.8,1.8
							C535.8,192.4,535,191.6,535,190.5z M538.9,190.5c0-1.1-0.9-2.1-2.1-2.1c-1.1,0-2.1,0.9-2.1,2.1c0,1.2,0.9,2.1,2.1,2.1
							C538,192.6,538.9,191.7,538.9,190.5z"/>
					</g>
					<g>
						<path fill="none" d="M538.7,190.5c0-1-0.8-1.9-1.9-1.9c-1,0-1.9,0.8-1.9,1.9c0,1,0.8,1.9,1.9,1.9
							C537.8,192.4,538.7,191.6,538.7,190.5z"/>
						<path fill="#222C37" d="M534.9,190.5c0-1,0.8-1.9,1.9-1.9c1,0,1.9,0.8,1.9,1.9c0,1-0.8,1.9-1.9,1.9
							C535.8,192.4,534.9,191.6,534.9,190.5z M538.9,190.5c0-1.1-0.9-2.1-2.1-2.1c-1.1,0-2.1,0.9-2.1,2.1c0,1.1,0.9,2.1,2.1,2.1
							C537.9,192.6,538.9,191.7,538.9,190.5z"/>
					</g>
					<g>
						<path fill="none" d="M538.7,190.5c0-1-0.8-1.9-1.9-1.9c-1,0-1.9,0.8-1.9,1.9c0,1,0.8,1.9,1.9,1.9
							C537.8,192.4,538.7,191.6,538.7,190.5z"/>
						<path fill="#28323D" d="M534.9,190.5c0-1,0.8-1.9,1.9-1.9c1,0,1.9,0.8,1.9,1.9c0,1-0.8,1.9-1.9,1.9
							C535.8,192.4,534.9,191.6,534.9,190.5z M538.8,190.5c0-1.1-0.9-2-2-2c-1.1,0-2,0.9-2,2c0,1.1,0.9,2,2,2
							C537.9,192.6,538.8,191.7,538.8,190.5z"/>
					</g>
					<g>
						<path fill="none" d="M538.7,190.5c0-1.1-0.9-1.9-1.9-1.9c-1,0-1.9,0.9-1.9,1.9c0,1.1,0.9,1.9,1.9,1.9
							C537.9,192.5,538.7,191.6,538.7,190.5z"/>
						<path fill="#2D3843" d="M534.9,190.5c0-1.1,0.9-1.9,1.9-1.9c1.1,0,1.9,0.9,1.9,1.9c0,1.1-0.9,1.9-1.9,1.9
							C535.7,192.5,534.9,191.6,534.9,190.5z M538.8,190.5c0-1.1-0.9-2-2-2c-1.1,0-2,0.9-2,2c0,1.1,0.9,2,2,2
							C537.9,192.6,538.8,191.7,538.8,190.5z"/>
					</g>
					<g>
						<path fill="none" d="M538.7,190.5c0-1.1-0.9-1.9-1.9-1.9c-1.1,0-1.9,0.9-1.9,1.9c0,1.1,0.9,1.9,1.9,1.9
							C537.9,192.5,538.7,191.6,538.7,190.5z"/>
						<path fill="#333E4A" d="M534.9,190.5c0-1.1,0.9-1.9,1.9-1.9c1.1,0,1.9,0.9,1.9,1.9c0,1.1-0.9,1.9-1.9,1.9
							C535.7,192.5,534.9,191.6,534.9,190.5z M538.8,190.5c0-1.1-0.9-2-2-2c-1.1,0-2,0.9-2,2c0,1.1,0.9,2,2,2
							C537.9,192.5,538.8,191.6,538.8,190.5z"/>
					</g>
				</g>
				
					<radialGradient id="SVGID_7_" cx="979.0021" cy="-544.2932" r="1.7165" gradientTransform="matrix(4.489659e-11 1 -1 4.489659e-11 -7.4924 -788.4592)" gradientUnits="userSpaceOnUse">
					<stop  offset="0.6264" style="stop-color:#093547"/>
					<stop  offset="1" style="stop-color:#0B1526"/>
				</radialGradient>
				<path fill="url(#SVGID_7_)" d="M536.8,192.3c-1,0-1.8-0.8-1.8-1.8s0.8-1.8,1.8-1.8c1,0,1.8,0.8,1.8,1.8S537.8,192.3,536.8,192.3
					z"/>
				<g>
					
						<radialGradient id="SVGID_8_" cx="978.996" cy="-544.3419" r="1.1345" gradientTransform="matrix(4.489659e-11 1 -1 4.489659e-11 -7.4924 -788.4592)" gradientUnits="userSpaceOnUse">
						<stop  offset="0.6264" style="stop-color:#093547"/>
						<stop  offset="1" style="stop-color:#0B1526"/>
					</radialGradient>
					<path fill="url(#SVGID_8_)" d="M536.8,191.6c-0.6,0-1.1-0.5-1.1-1.1c0-0.6,0.5-1.1,1.1-1.1s1.1,0.5,1.1,1.1
						C537.9,191.1,537.4,191.6,536.8,191.6z"/>
					<path d="M536.8,190.9c-0.2,0-0.3-0.1-0.3-0.3c0-0.2,0.1-0.3,0.3-0.3c0.2,0,0.3,0.1,0.3,0.3C537.1,190.7,537,190.9,536.8,190.9z
						"/>
					<circle opacity="0.5" fill="#FFFFFF" cx="537" cy="190.4" r="0.1"/>
					<path opacity="0.5" fill="#FFFFFF" d="M536.5,191c-0.1,0-0.2-0.1-0.2-0.2c0-0.1,0.1-0.2,0.2-0.2c0.1,0,0.2,0.1,0.2,0.2
						C536.7,190.9,536.6,191,536.5,191z"/>
				</g>
				<path opacity="0.2" fill="#F5EB1D" d="M536.8,188.4c-0.1,0-0.1,0-0.2,0c0,0.1,0,0.2,0,0.3c0,0.7,0.6,1.2,1.4,1.2
					c0.3,0,0.6-0.1,0.8-0.3C538.4,189,537.7,188.4,536.8,188.4z"/>
			</g>
		</g>
		<rect x="56.7" y="21" fill="#FFFFFF" width="453" height="339.2"/>
	</g>
</g>
</svg>
