<?xml version="1.0" encoding="utf-8"?>
<!-- Generator: Adobe Illustrator 18.1.1, SVG Export Plug-In . SVG Version: 6.00 Build 0)  -->
<!DOCTYPE svg PUBLIC "-//W3C//DTD SVG 1.1//EN" "http://www.w3.org/Graphics/SVG/1.1/DTD/svg11.dtd">
<svg version="1.1" id="Layer_1" xmlns="http://www.w3.org/2000/svg" xmlns:xlink="http://www.w3.org/1999/xlink" x="0px" y="0px"
	 viewBox="0 0 236.3 239.3" enable-background="new 0 0 236.3 239.3" xml:space="preserve">
<path fill-rule="evenodd" clip-rule="evenodd" fill="#FFFFFF" d="M122.9,113.1c0-0.1,0.1-0.1,0.1-0.2v0.2H122.9z M164.7,164.9h-20.3
	v-32.4c0-8.1-2.9-13.7-10.3-13.7c-5.6,0-8.9,3.7-10.4,7.4c-0.5,1.3-0.7,3.1-0.7,4.9v33.8h-20.3c0,0,0.3-54.9,0-60.6h20.3v8.6
	c2.7-4.1,7.5-10,18.3-10c13.3,0,23.3,8.7,23.3,27.3V164.9z M81.5,96h-0.1c-6.8,0-11.2-4.7-11.2-10.5c0-5.9,4.5-10.5,11.5-10.5
	c6.9,0,11.2,4.5,11.3,10.5C92.9,91.4,88.5,96,81.5,96z M71.3,104.3h20.3v60.6H71.3V104.3z M160.7,186.7H75.6
	c-13.5,0-24.5-11-24.5-24.5V77.1c0-13.5,11-24.5,24.5-24.5h85.1c13.5,0,24.5,11,24.5,24.5v85.1C185.2,175.7,174.2,186.7,160.7,186.7
	z"/>
</svg>
