<?xml version="1.0" encoding="utf-8"?>
<!-- Generator: Adobe Illustrator 18.0.0, SVG Export Plug-In . SVG Version: 6.00 Build 0)  -->
<!DOCTYPE svg PUBLIC "-//W3C//DTD SVG 1.1//EN" "http://www.w3.org/Graphics/SVG/1.1/DTD/svg11.dtd">
<svg version="1.1" id="Layer_1" xmlns="http://www.w3.org/2000/svg" xmlns:xlink="http://www.w3.org/1999/xlink" x="0px" y="0px"
	 viewBox="0 0 236 239" enable-background="new 0 0 236 239" xml:space="preserve">
<path d="M157.7,71v117.3c0,1.6,1.3,2.9,2.9,2.9h14.3c1.6,0,2.9-1.3,2.9-2.9V71c0-1.6-1.3-2.9-2.9-2.9h-14.3
	C159,68.2,157.7,69.4,157.7,71z"/>
<path d="M124.4,85.8v102.5c0,1.6,1.3,2.9,2.9,2.9h14.3c1.6,0,2.9-1.3,2.9-2.9V85.8c0-1.6-1.3-2.9-2.9-2.9h-14.3
	C125.6,82.9,124.4,84.2,124.4,85.8z"/>
<path d="M91,118.6v69.7c0,1.6,1.3,2.9,2.9,2.9h14.3c1.6,0,2.9-1.3,2.9-2.9v-69.7c0-1.6-1.3-2.9-2.9-2.9H93.9
	C92.3,115.7,91,117,91,118.6z"/>
<path d="M57.7,100.5v87.8c0,1.6,1.3,2.9,2.9,2.9h14.3c1.6,0,2.9-1.3,2.9-2.9v-87.8c0-1.6-1.3-2.9-2.9-2.9H60.6
	C59,97.7,57.7,98.9,57.7,100.5z"/>
</svg>
