<?xml version="1.0" encoding="utf-8"?>
<!-- Generator: Adobe Illustrator 18.1.1, SVG Export Plug-In . SVG Version: 6.00 Build 0)  -->
<!DOCTYPE svg PUBLIC "-//W3C//DTD SVG 1.1//EN" "http://www.w3.org/Graphics/SVG/1.1/DTD/svg11.dtd">
<svg version="1.1" id="Layer_1" xmlns="http://www.w3.org/2000/svg" xmlns:xlink="http://www.w3.org/1999/xlink" x="0px" y="0px"
	 viewBox="0 0 236.3 239.3" enable-background="new 0 0 236.3 239.3" xml:space="preserve">
<path fill-rule="evenodd" clip-rule="evenodd" fill="#FFFFFF" d="M122.9,113.1c0-0.1,0.1-0.1,0.1-0.2v0.2H122.9z M160.7,186.7H75.6
	c-13.5,0-24.5-11-24.5-24.5V77.1c0-13.5,11-24.5,24.5-24.5h85.1c13.5,0,24.5,11,24.5,24.5v85.1C185.2,175.7,174.2,186.7,160.7,186.7
	z M139.1,145.8c-1.6,0.8-4.7,1.5-7.1,1.5c-7,0.2-8.4-4.9-8.4-8.6v-27.3h17.6V98.2h-17.5V75.8c0,0-12.6,0-12.8,0
	c-0.2,0-0.6,0.2-0.6,0.7c-0.8,6.8-3.9,18.8-17.2,23.6v11.3h8.9V140c0,9.8,7.2,23.7,26.3,23.4c6.4-0.1,13.6-2.8,15.2-5.1L139.1,145.8
	z"/>
</svg>
