<?xml version="1.0" encoding="utf-8"?>
<!-- Generator: Adobe Illustrator 18.1.1, SVG Export Plug-In . SVG Version: 6.00 Build 0)  -->
<!DOCTYPE svg PUBLIC "-//W3C//DTD SVG 1.1//EN" "http://www.w3.org/Graphics/SVG/1.1/DTD/svg11.dtd">
<svg version="1.1" id="Layer_1" xmlns="http://www.w3.org/2000/svg" xmlns:xlink="http://www.w3.org/1999/xlink" x="0px" y="0px"
	 viewBox="0 0 236.3 239.3" enable-background="new 0 0 236.3 239.3" xml:space="preserve">
<path fill-rule="evenodd" clip-rule="evenodd" fill="#FFFFFF" d="M173.4,90.4c-4.1,1.8-8.6,3.1-13.2,3.6c4.8-2.8,8.4-7.4,10.1-12.7
	c-4.4,2.6-9.4,4.6-14.6,5.6c-4.2-4.4-10.2-7.3-16.8-7.3c-12.7,0-23,10.3-23,23c0,1.8,0.2,3.6,0.6,5.2c-19.1-1-36.1-10.1-47.4-24
	c-2,3.4-3.1,7.4-3.1,11.6c0,8,4.1,15,10.2,19.1c-3.8-0.1-7.3-1.2-10.4-2.9v0.3c0,11.1,7.9,20.5,18.4,22.6c-1.9,0.5-4,0.8-6.1,0.8
	c-1.5,0-2.9-0.1-4.3-0.4c2.9,9.1,11.4,15.8,21.5,16c-7.9,6.2-17.8,9.8-28.6,9.8c-1.8,0-3.7-0.1-5.5-0.3
	c10.2,6.5,22.3,10.3,35.3,10.3c42.3,0,65.4-35,65.4-65.4l-0.1-3C166.4,99,170.3,95,173.4,90.4z"/>
</svg>
